PathFileType	4	(X/Y/Z)	RBDS001\RBDS001runT45.trc
DataRate	CameraRate	NumFrames	NumMarkers	Units	OrigDataRate	OrigDataStartFrame	OrigNumFrames
150.000000	150.000000	5	33	mm	150.000000	1125	4500
Frame#	Time	L.ASIS			L.Heel.Bottom			L.Heel.Lateral			L.Heel.Top			L.Iliac.Crest			L.MT1			L.MT5			L.PSIS			L.Shank.Bottom.Lateral			L.Shank.Bottom.Medial			L.Shank.Top.Lateral			L.Shank.Top.Medial			L.Thigh.Bottom.Lateral			L.Thigh.Bottom.Medial			L.Thigh.Top.Lateral			L.Thigh.Top.Medial			R.ASIS			R.ASY			R.Heel.Bottom			R.Heel.Lateral			R.Heel.Top			R.Iliac.Crest			R.MT1			R.MT5			R.PSIS			R.Shank.Bottom.Lateral			R.Shank.Bottom.Medial			R.Shank.Top.Lateral			R.Shank.Top.Medial			R.Thigh.Bottom.Lateral			R.Thigh.Bottom.Medial			R.Thigh.Top.Lateral			R.Thigh.Top.Medial			
		X1	Y1	Z1	X2	Y2	Z2	X3	Y3	Z3	X4	Y4	Z4	X5	Y5	Z5	X6	Y6	Z6	X7	Y7	Z7	X8	Y8	Z8	X9	Y9	Z9	X10	Y10	Z10	X11	Y11	Z11	X12	Y12	Z12	X13	Y13	Z13	X14	Y14	Z14	X15	Y15	Z15	X16	Y16	Z16	X17	Y17	Z17	X18	Y18	Z18	X19	Y19	Z19	X20	Y20	Z20	X21	Y21	Z21	X22	Y22	Z22	X23	Y23	Z23	X24	Y24	Z24	X25	Y25	Z25	X26	Y26	Z26	X27	Y27	Z27	X28	Y28	Z28	X29	Y29	Z29	X30	Y30	Z30	X31	Y31	Z31	X32	Y32	Z32	X33	Y33	Z33	

1126	7.500000000000001	2384.946412862043	1004.226006484753	907.5057401753885	2346.533261295705	36.30188307700266	1070.644523308331	2364.715327369583	49.8885341249616	1024.603781917216	2358.072749021376	83.02283797165295	1069.466868182564	2320.042433910649	1064.7867781881	878.6259569585027	2577.901910017957	45.84075357116753	1058.024812087059	2516.077786812832	45.02283904050952	964.4616761265763	2223.305020642516	1034.251570989287	993.0615704748213	2432.2366041625	164.9984554834394	979.4799286646405	2393.668780599785	174.9315282875677	1011.758248412927	2431.371806581767	240.362934855404	950.1394429690137	2393.307511034082	255.084040453601	984.9742881108716	2410.401243697697	612.2353224762876	883.2037358956679	2367.601103541549	596.7006237726389	940.5096027456586	2350.883595848547	703.3763682023144	866.9352549411021	2311.105532681707	689.9608089853731	921.2765431795524	2401.169724058369	971.5939551620975	1115.204458237413	35183516.38085215	63419521.76369455	-100233410.7968092	1841.800099884118	638.5038678114944	1042.117016616761	1831.388173470695	609.4093309924394	1088.356853518883	1877.873346548403	606.6144465888028	1052.466383251598	2356.200161823191	1048.772770169705	1150.276948593979	1763.800327503093	426.7997920146888	1008.80746197269	1743.096841179783	462.8468965531562	1109.897170165837	2236.128475006235	1029.032109762463	1068.073362691955	1939.936366721625	533.9784049852346	1111.254636922723	1949.713269798363	570.3798705704199	1072.745546288362	2020.075626228507	529.601255827966	1125.283397871666	2028.98122225038	566.2547720124214	1086.364689911054	2282.547393603363	548.3138889402663	1153.68381771138	2237.528812089498	549.5554561540397	1095.055526949031	2268.653719874428	657.7188659448892	1164.314714619607	2223.731826815483	658.1068147058991	1110.111083311146	
1127	7.506666666666667	2382.161507868827	999.3374545033671	906.175543062412	2316.519324799731	35.67685400906655	1072.392887562719	2334.977035023233	50.8622528632188	1026.780757600171	2328.806686465617	82.47527529932114	1072.95082915613	2317.66393854581	1059.712524555941	878.1512939882582	2548.548765843536	43.28723185024257	1060.724872614247	2486.310273893573	45.96244610009206	966.7168281213795	2220.332736633142	1030.107514969948	993.6335642029428	2409.208162698065	162.9084028936119	983.1958748319122	2370.089591755613	174.9431513546497	1014.29789634578	2412.377454338867	238.0175537503797	952.899389302796	2374.045455599716	254.8017071659249	986.6559167948108	2403.53796777987	607.8498202096579	884.2459750491839	2361.208053450911	593.3992927236977	942.1917952373774	2344.956823286695	699.5662756268887	867.6532052620025	2305.427495162831	687.0471518614954	922.4490213779407	2399.140694235433	966.3445201493276	1113.980097537172	35287556.97565296	63609010.46923607	-100532794.7814372	1860.834377756854	638.9173259032541	1044.944937068019	1851.393322845014	609.8531375089251	1091.410994469491	1897.145694237163	607.17923208204	1054.727177564932	2353.947828313013	1042.810956495371	1150.624285157015	1782.774962647083	426.9141880579776	1013.285080450549	1764.022767663432	463.0870341833237	1114.808631612027	2233.343838121424	1023.834007267264	1068.397805750779	1959.94979305136	533.3899099335534	1113.841895561	1970.254769016658	569.6383805008182	1075.32335924065	2040.294995504994	527.5576074641725	1127.315743982095	2049.556378600928	564.0726453336729	1088.551582489416	2297.294149194588	541.8723637803428	1155.71750904116	2251.541777153022	541.0233070865457	1097.779022879408	2278.705319955967	650.6068543868456	1166.324846442199	2232.75600850624	648.6782979201945	1113.099872133465	
1128	7.513333333333334	2379.153960864913	994.9307623061861	905.0534009906809	2286.575995211541	35.46735980392923	1073.885364089642	2305.208615202807	51.91337914362256	1028.607217562506	2299.359746818048	82.27046452726286	1075.768346240794	2315.02360731116	1055.227716883225	877.6841468564019	2518.877493473955	41.83941228137541	1062.582792330324	2456.37850379819	46.98082577701391	968.4256710424771	2217.266204327872	1026.613477161391	994.1277981840265	2385.379276890448	161.4058648917937	986.2048370382917	2345.948739062956	175.4422727157583	1016.280575922903	2392.368056066206	236.09100220585	955.1778098201794	2354.005161708209	254.8156420208675	988.0028369403484	2395.747248476886	603.6943591357229	885.2043197005669	2353.765556876889	590.3862184743413	943.7010314777468	2338.37004650411	696.1481079276936	868.2872831454749	2299.023089593381	684.5956753370994	923.4806406007265	2396.820852341789	961.5841428157853	1112.891610733441	35391802.4502685	63798876.2805116	-100832774.3169094	1879.186520624188	637.9235810165658	1048.381207836335	1871.06508875862	608.5835351983477	1094.933081857412	1915.962279796204	606.5554574088906	1057.480475718414	2351.238775129946	1037.342340620277	1150.988338924683	1802.536652575082	425.2799645552401	1017.489610432639	1785.700238390676	460.9040767830469	1119.59006310134	2230.332279487879	1019.243479238692	1068.636636336764	1980.13389514267	531.9146783120746	1116.494903313564	1990.659302985379	568.1510443992765	1078.048775206737	2060.723208916146	525.1714701744413	1129.350214855278	2070.012180583176	561.698728923981	1090.896659371393	2312.898426903169	536.9592449339478	1157.617745880664	2266.456302284716	533.9794473745972	1100.450088041864	2289.453907883754	644.7353722511384	1168.34117146594	2242.467985764406	640.3339633615133	1116.271310523883	
1129	7.52	2375.992277559966	991.09960573663	904.1376424238601	2256.73129544756	35.60083047979655	1075.082297564041	2275.443422809446	52.94205894984653	1030.036574607845	2269.805516685007	82.35194471607079	1077.868925629917	2312.087944719935	1051.408423435881	877.2764208104071	2488.992269867264	41.20092099920785	1063.675437452472	2426.352292880851	47.90097181778636	969.6010649559665	2214.177101770039	1023.796639696173	994.585879710127	2360.805822273126	160.3949454480055	988.4254174690394	2321.291845270966	176.3095733874608	1017.635269610485	2371.371623664769	234.5103424393257	956.887972806916	2333.19950503263	255.0383472487731	988.9321847978495	2386.987934872954	599.7957730997913	886.0457643222235	2345.225148570802	587.6680933977582	944.9899376047953	2331.102755715903	693.1494450750124	868.8404781833606	2291.882554396723	682.6221997554401	924.3731765654936	2394.255869575802	957.4271424617986	1111.987356652118	35496253.00619528	63989119.5724266	-101133349.9949908	1896.686551135023	635.4981354269348	1052.273429195511	1890.217101060564	605.6526998727078	1098.788564003418	1934.144961414336	604.7447977919534	1060.602529814397	2348.133971057887	1032.49753653726	1151.378451487034	1822.983603187053	421.8468352368131	1021.441622949417	1807.982313267458	456.3879097424659	1124.215826300741	2227.183706590524	1015.338012182803	1068.833396234015	2000.302710346936	529.6300045361697	1119.145405621141	2010.725433198744	565.9940989956693	1080.840401162671	2081.158999126587	522.5808723604248	1131.362799510805	2090.156812310414	559.2654679741079	1093.330381350898	2329.229319737519	533.8034511521024	1159.323363388671	2282.213823688494	528.6332044941613	1102.961438301667	2300.784232248984	640.311017257338	1170.272733892137	2252.836237663322	633.269225552325	1119.478075798603	
1130	7.526666666666667	2372.762429377909	987.8913312765018	903.4133945340018	2226.957304839634	36.0124166238098	1075.963020344788	2245.669715072462	53.89408011329972	1031.051070510753	2240.170384776483	82.6747625090558	1079.261308457113	2308.890248916241	1048.30215130935	876.967566501583	2458.953558522267	41.08889963060047	1064.12714086387	2396.261997557721	48.6114955572478	970.2923260949049	2211.146977369519	1021.664128238845	995.0292706099735	2335.536773317789	159.7848901665223	989.8526370358027	2296.143059265648	177.4404615715557	1018.355965003356	2349.423582617414	233.2114746884875	957.9998674396359	2311.634658301713	255.4017501272041	989.4066069874289	2377.229641079808	596.1693318958999	886.7436157139391	2335.559868419586	585.2468056309267	946.0274614661051	2323.144976692401	690.5823628982461	869.318000332883	2284.009112896797	681.1304488651652	925.1360849860943	2391.512493223011	953.9656935253183	1111.300742202973	35600908.84492981	64179740.71988651	-101434522.4074467	1913.198563853148	631.5870276552855	1056.438127146486	1908.695540083895	601.1155793584112	1102.822413596749	1951.54254808618	601.7279229265448	1063.934000585863	2344.72658112555	1028.387121851115	1151.796859299432	1844.053673571824	416.5776911909477	1025.188272028756	1830.774406836674	449.6794210209164	1128.679679952729	2223.999946319442	1012.179800029276	1069.016208831728	2020.289025534238	526.6093263551055	1121.720518793102	2030.277134496318	563.2295638999407	1083.607993146303	2101.408907332217	519.9075098991159	1133.32728320629	2109.814233607814	556.8764494238358	1095.768827173959	2346.105570595896	532.5700023658757	1160.778738733583	2298.688835354676	525.1321923811277	1105.221848580867	2312.54540379644	637.4836129779329	1172.031695791267	2263.781646055671	627.6399164050922	1122.578445792064	
